<?xml version="1.0" standalone="no"?>
<!DOCTYPE svg PUBLIC "-//W3C//DTD SVG 20010904//EN"
 "http://www.w3.org/TR/2001/REC-SVG-20010904/DTD/svg10.dtd">
<svg version="1.0" xmlns="http://www.w3.org/2000/svg"
 width="64.000000pt" height="64.000000pt" viewBox="0 0 64.000000 64.000000"
 preserveAspectRatio="xMidYMid meet">
<metadata>
Created by potrace 1.10, written by Peter Selinger 2001-2011
</metadata>
<g transform="translate(0.000000,64.000000) scale(0.100000,-0.100000)"
fill="#000000" stroke="none">
<path d="M161 584 c-61 -51 -25 -148 54 -148 78 0 112 89 56 145 -36 36 -70
37 -110 3z"/>
<path d="M73 336 c-25 -21 -28 -31 -31 -100 l-4 -76 126 0 c124 0 126 0 126
23 1 34 36 104 59 117 27 14 26 26 -3 46 -23 15 -27 14 -56 -8 -42 -31 -107
-31 -149 0 -37 27 -34 27 -68 -2z"/>
<path d="M390 302 c-19 -9 -45 -32 -57 -51 -46 -69 -19 -164 57 -204 88 -46
203 25 203 126 0 55 -26 99 -73 126 -46 26 -84 27 -130 3z m98 -34 c7 -7 12
-22 12 -33 0 -12 7 -36 16 -54 36 -73 -37 -149 -102 -107 -40 27 -51 60 -31
102 9 19 17 45 17 57 0 30 18 47 50 47 14 0 31 -5 38 -12z"/>
<path d="M432 257 c-23 -27 -17 -39 21 -41 40 -3 48 11 21 38 -19 19 -28 20
-42 3z"/>
<path d="M406 178 c-21 -30 -20 -54 4 -78 39 -39 100 -14 100 42 0 53 -74 79
-104 36z m50 -65 c-11 -11 -19 6 -11 24 8 17 8 17 12 0 3 -10 2 -21 -1 -24z"/>
</g>
</svg>
