<?xml version="1.0" encoding="utf-8"?>
<!-- Generator: Adobe Illustrator 25.2.3, SVG Export Plug-In . SVG Version: 6.00 Build 0)  -->
<svg version="1.1" id="Capa_1" xmlns="http://www.w3.org/2000/svg" xmlns:xlink="http://www.w3.org/1999/xlink" x="0px" y="0px"
	 viewBox="0 0 425.2 425.2" style="enable-background:new 0 0 425.2 425.2;" xml:space="preserve">
<style type="text/css">
	.st0{fill:#111114;}
	.st1{fill:#FFFFFF;}
</style>
<g>
	<path class="st0" d="M411.3,212.6c0,109.7-89,198.7-198.7,198.7h0c-109.7,0-198.7-89-198.7-198.7v0c0-109.7,89-198.7,198.7-198.7h0
		C322.3,13.9,411.3,102.9,411.3,212.6L411.3,212.6z"/>
	<path class="st1" d="M266.5,108.4H158.7c-27.8,0-50.3,22.5-50.3,50.3v107.8c0,27.8,22.5,50.3,50.3,50.3h107.8
		c27.8,0,50.3-22.5,50.3-50.3V158.7C316.8,130.9,294.3,108.4,266.5,108.4z M298.8,262.9c0,19.8-16.1,35.9-35.9,35.9H162.3
		c-19.8,0-35.9-16.1-35.9-35.9V162.3c0-19.8,16.1-35.9,35.9-35.9h100.6c19.8,0,35.9,16.1,35.9,35.9V262.9z"/>
	<path class="st1" d="M212.7,158.7c-29.8,0-53.9,24.1-53.9,53.9c0,29.8,24.1,53.9,53.9,53.9s53.9-24.1,53.9-53.9
		C266.6,182.8,242.5,158.7,212.7,158.7z M212.7,248.5c-19.8,0-35.9-16.1-35.9-35.9s16.1-35.9,35.9-35.9s35.9,16.1,35.9,35.9
		S232.5,248.5,212.7,248.5z"/>
	<circle class="st1" cx="270.2" cy="155.1" r="10.8"/>
</g>
</svg>
