<?xml version="1.0" encoding="utf-8"?>
<!-- Generator: Adobe Illustrator 25.2.3, SVG Export Plug-In . SVG Version: 6.00 Build 0)  -->
<svg version="1.1" id="Capa_1" xmlns="http://www.w3.org/2000/svg" xmlns:xlink="http://www.w3.org/1999/xlink" x="0px" y="0px"
	 viewBox="0 0 425.2 425.2" style="enable-background:new 0 0 425.2 425.2;" xml:space="preserve">
<style type="text/css">
	.st0{fill:#111114;}
	.st1{fill:#FFFFFF;}
</style>
<g>
	<path class="st0" d="M411.3,212.6c0,109.7-89,198.7-198.7,198.7h0c-109.7,0-198.7-89-198.7-198.7v0c0-109.7,89-198.7,198.7-198.7h0
		C322.3,13.9,411.3,102.9,411.3,212.6L411.3,212.6z"/>
	<g>
		<circle class="st1" cx="142.2" cy="133.9" r="25.6"/>
		<path class="st1" d="M161.6,304.5h-38.8c-1.1,0-1.9-0.9-1.9-1.9V178.4c0-1.1,0.9-1.9,1.9-1.9h38.8c1.1,0,1.9,0.9,1.9,1.9v124.1
			C163.6,303.6,162.7,304.5,161.6,304.5z"/>
		<path class="st1" d="M308.6,223.5V296c0,4.7-3.8,8.5-8.5,8.5h-25.6c-4.7,0-8.5-3.8-8.5-8.5v-59.7c0-11.8-9.6-21.3-21.3-21.3
			c-11.8,0-21.3,9.6-21.3,21.3V296c0,4.7-3.8,8.5-8.5,8.5h-25.6c-4.7,0-8.5-3.8-8.5-8.5V185.1c0-4.7,3.8-8.5,8.5-8.5h25.6
			c4.7,0,8.5,3.8,8.5,8.5v5.5c8.5-11,22.6-18.3,38.4-18.3C285.2,172.3,308.6,189.3,308.6,223.5z"/>
	</g>
</g>
</svg>
