<?xml version="1.0" encoding="utf-8"?>
<!-- Generator: Adobe Illustrator 25.2.3, SVG Export Plug-In . SVG Version: 6.00 Build 0)  -->
<svg version="1.1" id="Capa_1" xmlns="http://www.w3.org/2000/svg" xmlns:xlink="http://www.w3.org/1999/xlink" x="0px" y="0px"
	 viewBox="0 0 283.5 99.2" style="enable-background:new 0 0 283.5 99.2;" xml:space="preserve">
<style type="text/css">
	.st0{fill:#B2AA8E;}
	.st1{fill:#0C1B33;}
</style>
<g>
	<g>
		<path class="st0" d="M117.6,56.2v-8.6c0-2.3-0.7-4.1-2-5.4c-1.3-1.3-3.2-2-5.5-2c-1.2,0-2.4,0.2-3.6,0.6c-1.2,0.4-2.4,1-3.6,1.9
			l0.9,1.7c1.1-0.7,2.1-1.3,3-1.6c1-0.4,2-0.6,3-0.6c1.7,0,2.9,0.5,3.9,1.4c0.9,0.9,1.4,2.2,1.4,3.7v1.6c-0.8-0.3-1.6-0.5-2.6-0.6
			s-1.9-0.2-2.8-0.2c-1.6,0-2.9,0.2-4.1,0.7s-2.1,1.1-2.8,2c-0.7,0.8-1,1.9-1,3c0,1,0.3,2,0.8,2.9s1.3,1.6,2.3,2.1s2.1,0.8,3.3,0.8
			c1.4,0,2.8-0.3,4.1-0.9c1.3-0.6,2.4-1.4,3.3-2.5v1.4c0,0.4,0.2,0.8,0.5,1.1c0.3,0.4,0.8,0.6,1.4,0.6c0.1,0,0.2,0,0.4,0
			c0.2,0,0.4,0,0.7-0.1v-2c-0.3,0-0.5-0.1-0.7-0.3C117.7,56.7,117.6,56.5,117.6,56.2z M115.2,53.4c0,0.2-0.1,0.5-0.2,0.8
			s-0.3,0.6-0.6,1c-0.6,0.7-1.3,1.3-2.4,1.7c-1,0.5-2.1,0.7-3.3,0.7c-0.9,0-1.7-0.2-2.4-0.6c-0.7-0.4-1.2-0.9-1.6-1.5
			s-0.5-1.3-0.5-1.9c0-1.2,0.5-2.1,1.6-2.8s2.5-1,4.2-1c0.9,0,1.8,0.1,2.6,0.2c0.9,0.2,1.7,0.4,2.5,0.7v2.7H115.2z"/>
		<path class="st0" d="M128.5,57.1c-0.4,0.1-0.9,0.1-1.3,0.1c-0.5,0-0.9-0.1-1.2-0.4c-0.3-0.3-0.5-0.9-0.5-1.8V32.9H123v22.9
			c0,1.1,0.3,2,1,2.7c0.7,0.6,1.5,1,2.6,1c0.5,0,1-0.1,1.7-0.2c0.7-0.1,1.2-0.3,1.7-0.5l-0.4-2C129.3,56.9,128.9,57,128.5,57.1z"/>
		<path class="st0" d="M147.3,44.1c-0.7-1.1-1.7-2.1-2.9-2.8s-2.6-1.1-4-1.1c-1.2,0-2.4,0.3-3.5,0.8s-2,1.2-2.8,2.1
			c-0.8,0.9-1.4,1.9-1.9,3.1c-0.5,1.2-0.7,2.4-0.7,3.7s0.2,2.5,0.6,3.6c0.4,1.2,1,2.2,1.7,3.1c0.7,0.9,1.6,1.6,2.7,2.1
			c1,0.5,2.2,0.8,3.5,0.8c2.9,0,5.3-1.4,7.1-4.2v11.5h2.4V40.4h-2.2L147.3,44.1L147.3,44.1z M147,52.9c-0.4,0.8-1,1.5-1.6,2.2
			s-1.3,1.2-2.1,1.6c-0.8,0.4-1.7,0.6-2.7,0.6c-1.3,0-2.5-0.3-3.5-1s-1.8-1.6-2.4-2.7c-0.6-1.1-0.9-2.4-0.9-3.7
			c0-0.9,0.2-1.8,0.5-2.7s0.8-1.7,1.4-2.4c0.6-0.7,1.3-1.3,2.2-1.7c0.8-0.4,1.8-0.6,2.8-0.6c0.7,0,1.4,0.1,2,0.4
			c0.7,0.2,1.3,0.6,1.9,1.1c0.6,0.5,1.1,1,1.5,1.6s0.6,1.2,0.7,1.8v5.5H147z"/>
		<path class="st0" d="M170.7,56.2V40.4h-2.4v11.8c-0.4,1-0.9,1.9-1.6,2.7c-0.7,0.8-1.5,1.4-2.4,1.8c-0.9,0.4-1.8,0.6-2.8,0.6
			c-1.4,0-2.5-0.5-3.3-1.6s-1.1-2.6-1.1-4.8V40.4h-2.4v11c0,2.6,0.5,4.7,1.5,6c1,1.4,2.5,2,4.5,2c1.6,0,3.1-0.4,4.5-1.2
			s2.5-1.9,3.3-3.4l0.1,2.5c0,0.5,0.2,0.9,0.6,1.2c0.3,0.3,0.8,0.5,1.2,0.6c0.1,0,0.3,0,0.5,0s0.4,0,0.7-0.1v-1.8
			c-0.3,0-0.5-0.1-0.6-0.3C170.7,56.7,170.7,56.5,170.7,56.2z"/>
		<rect x="176.2" y="40.4" class="st0" width="2.4" height="18.7"/>
		<rect x="176.2" y="32.9" class="st0" width="2.4" height="3.6"/>
		<path class="st0" d="M189.6,57.1c-0.4,0.1-0.9,0.1-1.3,0.1c-0.5,0-0.9-0.1-1.2-0.4c-0.3-0.3-0.5-0.9-0.5-1.8V32.9h-2.4v22.9
			c0,1.1,0.3,2,1,2.7c0.7,0.6,1.5,1,2.6,1c0.5,0,1-0.1,1.7-0.2c0.7-0.1,1.2-0.3,1.7-0.5l-0.4-2C190.4,56.9,190,57,189.6,57.1z"/>
		<path class="st0" d="M208.3,56.9c-0.1-0.2-0.2-0.4-0.2-0.7v-8.6c0-2.3-0.7-4.1-2-5.4c-1.3-1.3-3.2-2-5.5-2c-1.2,0-2.4,0.2-3.6,0.6
			c-1.2,0.4-2.4,1-3.6,1.9l0.9,1.7c1.1-0.7,2.1-1.3,3-1.6c1-0.4,2-0.6,3-0.6c1.7,0,2.9,0.5,3.9,1.4c0.9,0.9,1.4,2.2,1.4,3.7v1.6
			c-0.8-0.3-1.6-0.5-2.6-0.6s-1.9-0.2-2.8-0.2c-1.6,0-2.9,0.2-4.1,0.7c-1.2,0.5-2.1,1.1-2.8,2c-0.7,0.8-1,1.9-1,3c0,1,0.3,2,0.8,2.9
			s1.3,1.6,2.3,2.1s2.1,0.8,3.3,0.8c1.4,0,2.8-0.3,4.1-0.9c1.3-0.6,2.4-1.4,3.3-2.5v1.4c0,0.4,0.2,0.8,0.5,1.1
			c0.3,0.4,0.8,0.6,1.4,0.6c0.1,0,0.2,0,0.4,0s0.4,0,0.7-0.1v-2C208.7,57.1,208.5,57,208.3,56.9z M205.7,53.4c0,0.2-0.1,0.5-0.2,0.8
			c-0.1,0.3-0.3,0.6-0.6,1c-0.6,0.7-1.3,1.3-2.4,1.7c-1,0.5-2.1,0.7-3.3,0.7c-0.9,0-1.7-0.2-2.4-0.6c-0.7-0.4-1.2-0.9-1.6-1.5
			c-0.4-0.6-0.5-1.3-0.5-1.9c0-1.2,0.5-2.1,1.6-2.8s2.5-1,4.2-1c0.9,0,1.8,0.1,2.6,0.2c0.9,0.2,1.7,0.4,2.5,0.7L205.7,53.4
			L205.7,53.4z"/>
	</g>
	<g>
		<path class="st1" d="M243.6,40.5c-1.1-0.7-2.5-1-4.1-1c-1.9,0-3.6,0.4-5.1,1.3c-0.8,0.5-1.6,1.1-2.2,1.8c-0.1-0.2-0.2-0.4-0.4-0.6
			c-0.6-0.9-1.4-1.5-2.4-1.9s-2-0.6-3.2-0.6c-1.5,0-2.9,0.3-4.2,1c-0.7,0.3-1.3,0.8-1.8,1.3l0.4-2h-5.4l-3.8,19.3h5.6l1.9-9.8
			c0.4-1.7,1-3,1.8-3.8c0.9-0.8,2-1.2,3.3-1.2c1.2,0,2.1,0.4,2.6,1.1c0.5,0.8,0.6,1.9,0.3,3.3l-2,10.3h5.6l2-9.9
			c0.3-1.7,0.9-2.9,1.8-3.7c0.9-0.8,2-1.2,3.3-1.2c1.2,0,2.1,0.4,2.6,1.1c0.5,0.8,0.6,1.9,0.3,3.3l-2,10.3h5.6l2.2-10.7
			c0.4-1.9,0.3-3.6-0.2-4.9C245.5,42.2,244.7,41.2,243.6,40.5z"/>
		<path class="st1" d="M269,43.5c-0.8-1.3-1.8-2.3-3.2-3c-1.4-0.7-3-1.1-4.9-1.1c-2.2,0-4.2,0.5-5.9,1.5c-1.7,1-3.1,2.3-4,4
			c-1,1.7-1.5,3.6-1.5,5.8c0,1.7,0.4,3.3,1.2,4.6s2,2.3,3.4,3c1.5,0.7,3.2,1.1,5.2,1.1c1.5,0,2.9-0.2,4.3-0.6c1.4-0.4,2.7-1.1,3.8-2
			l-2.3-3.7c-0.6,0.6-1.4,1-2.3,1.3s-1.9,0.5-2.8,0.5c-1.7,0-3-0.4-3.8-1.1c-0.7-0.7-1.1-1.6-1.2-2.9h14.8c0.1-0.5,0.2-0.9,0.3-1.4
			c0.1-0.5,0.1-1,0.1-1.5C270.1,46.3,269.8,44.8,269,43.5z M257.5,44.6c0.9-0.6,1.9-0.9,3.1-0.9c1,0,1.8,0.2,2.5,0.6
			c0.7,0.4,1.2,1,1.5,1.7c0.2,0.5,0.3,1.1,0.3,1.7h-9.6c0.1-0.2,0.2-0.5,0.2-0.7C256.1,46,256.7,45.1,257.5,44.6z"/>
	</g>
	<g>
		<polygon class="st1" points="70.8,12.5 48,14.3 13.3,35.1 16,41.7 36.5,40.5 55.5,64.5 90.7,44.1 93.7,40.3 		"/>
		<polygon class="st1" points="70.1,62.1 66.2,64.5 66.2,67.5 70.1,65.1 		"/>
		<polygon class="st1" points="66.2,71.9 70.1,69.5 70.1,66.5 66.2,68.9 		"/>
		<polygon class="st1" points="75.2,58.9 71.3,61.3 71.3,64.3 75.2,61.9 		"/>
		<polygon class="st1" points="71.3,68.7 75.2,66.3 75.2,63.3 71.3,65.7 		"/>
		<polygon class="st1" points="80.2,56 76.3,58.4 76.3,61.5 80.2,59 		"/>
		<polygon class="st1" points="76.3,65.9 80.2,63.4 80.2,60.4 76.3,62.8 		"/>
		<polygon class="st1" points="39.5,73.7 39.5,60.6 32.3,57.2 32.3,69.7 16.3,60.6 16.3,64.1 55.7,86.7 89.9,67.1 89.9,63.6 
			55.2,82.5 		"/>
	</g>
</g>
</svg>
