<?xml version="1.0" encoding="utf-8"?>
<!-- Generator: Adobe Illustrator 25.2.3, SVG Export Plug-In . SVG Version: 6.00 Build 0)  -->
<svg version="1.1" id="Capa_1" xmlns="http://www.w3.org/2000/svg" xmlns:xlink="http://www.w3.org/1999/xlink" x="0px" y="0px"
	 viewBox="0 0 283.5 99.2" style="enable-background:new 0 0 283.5 99.2;" xml:space="preserve">
<style type="text/css">
	.st0{fill:#706F6F;}
	.st1{fill:#D60B52;}
</style>
<g>
	<g>
		<path class="st0" d="M117.6,56v-8.6c0-2.3-0.7-4.1-2-5.4c-1.3-1.3-3.2-2-5.5-2c-1.2,0-2.4,0.2-3.6,0.6c-1.2,0.4-2.4,1-3.6,1.9
			l0.9,1.7c1.1-0.7,2.1-1.3,3-1.6c1-0.4,2-0.6,3-0.6c1.7,0,2.9,0.5,3.9,1.4c0.9,0.9,1.4,2.2,1.4,3.7v1.6c-0.8-0.3-1.6-0.5-2.6-0.6
			c-1-0.1-1.9-0.2-2.8-0.2c-1.6,0-2.9,0.2-4.1,0.7c-1.2,0.5-2.1,1.1-2.8,2c-0.7,0.8-1,1.9-1,3c0,1,0.3,2,0.8,2.9
			c0.5,0.9,1.3,1.6,2.3,2.1c1,0.5,2.1,0.8,3.3,0.8c1.4,0,2.8-0.3,4.1-0.9c1.3-0.6,2.4-1.4,3.3-2.5l0,1.4c0,0.4,0.2,0.8,0.5,1.1
			c0.3,0.4,0.8,0.6,1.4,0.6c0.1,0,0.2,0,0.4,0c0.2,0,0.4,0,0.7-0.1V57c-0.3,0-0.5-0.1-0.7-0.3C117.7,56.5,117.6,56.3,117.6,56z
			 M115.2,53.2c0,0.2-0.1,0.5-0.2,0.8c-0.1,0.3-0.3,0.6-0.6,1c-0.6,0.7-1.3,1.3-2.4,1.7c-1,0.5-2.1,0.7-3.3,0.7
			c-0.9,0-1.7-0.2-2.4-0.6c-0.7-0.4-1.2-0.9-1.6-1.5c-0.4-0.6-0.5-1.3-0.5-1.9c0-1.2,0.5-2.1,1.6-2.8c1.1-0.7,2.5-1,4.2-1
			c0.9,0,1.8,0.1,2.6,0.2c0.9,0.2,1.7,0.4,2.5,0.7V53.2z"/>
		<path class="st0" d="M128.5,56.9c-0.4,0.1-0.9,0.1-1.3,0.1c-0.5,0-0.9-0.1-1.2-0.4c-0.3-0.3-0.5-0.9-0.5-1.8V32.7H123v22.9
			c0,1.1,0.3,2,1,2.7c0.7,0.6,1.5,1,2.6,1c0.5,0,1-0.1,1.7-0.2c0.7-0.1,1.2-0.3,1.7-0.5l-0.4-2C129.3,56.7,128.9,56.8,128.5,56.9z"
			/>
		<path class="st0" d="M147.3,43.9c-0.7-1.1-1.7-2.1-2.9-2.8c-1.2-0.7-2.6-1.1-4-1.1c-1.2,0-2.4,0.3-3.5,0.8c-1.1,0.5-2,1.2-2.8,2.1
			c-0.8,0.9-1.4,1.9-1.9,3.1c-0.5,1.2-0.7,2.4-0.7,3.7c0,1.3,0.2,2.5,0.6,3.6c0.4,1.2,1,2.2,1.7,3.1c0.7,0.9,1.6,1.6,2.7,2.1
			c1,0.5,2.2,0.8,3.5,0.8c2.9,0,5.3-1.4,7.1-4.2v11.5h2.4V40.2h-2.2V43.9z M147,52.7c-0.4,0.8-1,1.5-1.6,2.2
			c-0.6,0.7-1.3,1.2-2.1,1.6c-0.8,0.4-1.7,0.6-2.7,0.6c-1.3,0-2.5-0.3-3.5-1s-1.8-1.6-2.4-2.7c-0.6-1.1-0.9-2.4-0.9-3.7
			c0-0.9,0.2-1.8,0.5-2.7c0.3-0.9,0.8-1.7,1.4-2.4c0.6-0.7,1.3-1.3,2.2-1.7c0.8-0.4,1.8-0.6,2.8-0.6c0.7,0,1.4,0.1,2,0.4
			c0.7,0.2,1.3,0.6,1.9,1.1c0.6,0.5,1.1,1,1.5,1.6s0.6,1.2,0.7,1.8V52.7z"/>
		<path class="st0" d="M170.7,56V40.2h-2.4V52c-0.4,1-0.9,1.9-1.6,2.7c-0.7,0.8-1.5,1.4-2.4,1.8c-0.9,0.4-1.8,0.6-2.8,0.6
			c-1.4,0-2.5-0.5-3.3-1.6s-1.1-2.6-1.1-4.8V40.2h-2.4v11c0,2.6,0.5,4.7,1.5,6c1,1.4,2.5,2,4.5,2c1.6,0,3.1-0.4,4.5-1.2
			c1.4-0.8,2.5-1.9,3.3-3.4l0.1,2.5c0,0.5,0.2,0.9,0.6,1.2c0.3,0.3,0.8,0.5,1.2,0.6c0.1,0,0.3,0,0.5,0c0.2,0,0.4,0,0.7-0.1V57
			c-0.3,0-0.5-0.1-0.6-0.3C170.7,56.5,170.7,56.3,170.7,56z"/>
		<rect x="176.2" y="40.2" class="st0" width="2.4" height="18.7"/>
		<rect x="176.2" y="32.7" class="st0" width="2.4" height="3.6"/>
		<path class="st0" d="M189.6,56.9c-0.4,0.1-0.9,0.1-1.3,0.1c-0.5,0-0.9-0.1-1.2-0.4c-0.3-0.3-0.5-0.9-0.5-1.8V32.7h-2.4v22.9
			c0,1.1,0.3,2,1,2.7c0.7,0.6,1.5,1,2.6,1c0.5,0,1-0.1,1.7-0.2c0.7-0.1,1.2-0.3,1.7-0.5l-0.4-2C190.4,56.7,190,56.8,189.6,56.9z"/>
		<path class="st0" d="M208.3,56.7c-0.1-0.2-0.2-0.4-0.2-0.7v-8.6c0-2.3-0.7-4.1-2-5.4c-1.3-1.3-3.2-2-5.5-2c-1.2,0-2.4,0.2-3.6,0.6
			c-1.2,0.4-2.4,1-3.6,1.9l0.9,1.7c1.1-0.7,2.1-1.3,3-1.6c1-0.4,2-0.6,3-0.6c1.7,0,2.9,0.5,3.9,1.4c0.9,0.9,1.4,2.2,1.4,3.7v1.6
			c-0.8-0.3-1.6-0.5-2.6-0.6c-1-0.1-1.9-0.2-2.8-0.2c-1.6,0-2.9,0.2-4.1,0.7c-1.2,0.5-2.1,1.1-2.8,2c-0.7,0.8-1,1.9-1,3
			c0,1,0.3,2,0.8,2.9c0.5,0.9,1.3,1.6,2.3,2.1c1,0.5,2.1,0.8,3.3,0.8c1.4,0,2.8-0.3,4.1-0.9c1.3-0.6,2.4-1.4,3.3-2.5l0,1.4
			c0,0.4,0.2,0.8,0.5,1.1c0.3,0.4,0.8,0.6,1.4,0.6c0.1,0,0.2,0,0.4,0c0.2,0,0.4,0,0.7-0.1V57C208.7,56.9,208.5,56.8,208.3,56.7z
			 M205.7,53.2c0,0.2-0.1,0.5-0.2,0.8c-0.1,0.3-0.3,0.6-0.6,1c-0.6,0.7-1.3,1.3-2.4,1.7c-1,0.5-2.1,0.7-3.3,0.7
			c-0.9,0-1.7-0.2-2.4-0.6c-0.7-0.4-1.2-0.9-1.6-1.5c-0.4-0.6-0.5-1.3-0.5-1.9c0-1.2,0.5-2.1,1.6-2.8c1.1-0.7,2.5-1,4.2-1
			c0.9,0,1.8,0.1,2.6,0.2c0.9,0.2,1.7,0.4,2.5,0.7V53.2z"/>
	</g>
	<g>
		<path class="st1" d="M243.6,40.3c-1.1-0.7-2.5-1-4.1-1c-1.9,0-3.6,0.4-5.1,1.3c-0.8,0.5-1.6,1.1-2.2,1.8c-0.1-0.2-0.2-0.4-0.4-0.6
			c-0.6-0.9-1.4-1.5-2.4-1.9c-1-0.4-2-0.6-3.2-0.6c-1.5,0-2.9,0.3-4.2,1c-0.7,0.3-1.3,0.8-1.8,1.3l0.4-2h-5.4l-3.8,19.3h5.6l1.9-9.8
			c0.4-1.7,1-3,1.8-3.8c0.9-0.8,2-1.2,3.3-1.2c1.2,0,2.1,0.4,2.6,1.1c0.5,0.8,0.6,1.9,0.3,3.3l-2,10.3h5.6l2-9.9
			c0.3-1.7,0.9-2.9,1.8-3.7c0.9-0.8,2-1.2,3.3-1.2c1.2,0,2.1,0.4,2.6,1.1c0.5,0.8,0.6,1.9,0.3,3.3l-2,10.3h5.6l2.2-10.7
			c0.4-1.9,0.3-3.6-0.2-4.9C245.5,42,244.7,41,243.6,40.3z"/>
		<path class="st1" d="M269,43.3c-0.8-1.3-1.8-2.3-3.2-3c-1.4-0.7-3-1.1-4.9-1.1c-2.2,0-4.2,0.5-5.9,1.5c-1.7,1-3.1,2.3-4,4
			c-1,1.7-1.5,3.6-1.5,5.8c0,1.7,0.4,3.3,1.2,4.6c0.8,1.3,2,2.3,3.4,3c1.5,0.7,3.2,1.1,5.2,1.1c1.5,0,2.9-0.2,4.3-0.6
			c1.4-0.4,2.7-1.1,3.8-2l-2.3-3.7c-0.6,0.6-1.4,1-2.3,1.3c-0.9,0.3-1.9,0.5-2.8,0.5c-1.7,0-3-0.4-3.8-1.1c-0.7-0.7-1.1-1.6-1.2-2.9
			h14.8c0.1-0.5,0.2-0.9,0.3-1.4c0.1-0.5,0.1-1,0.1-1.5C270.1,46.1,269.8,44.6,269,43.3z M257.5,44.4c0.9-0.6,1.9-0.9,3.1-0.9
			c1,0,1.8,0.2,2.5,0.6c0.7,0.4,1.2,1,1.5,1.7c0.2,0.5,0.3,1.1,0.3,1.7h-9.6c0.1-0.2,0.2-0.5,0.2-0.7
			C256.1,45.8,256.7,44.9,257.5,44.4z"/>
	</g>
	<g>
		<polygon class="st1" points="70.8,12.3 48,14.1 13.3,34.9 16,41.5 36.5,40.3 55.5,64.3 90.7,43.9 93.7,40.1 		"/>
		<polygon class="st1" points="70.1,61.9 66.2,64.3 66.2,67.3 70.1,64.9 		"/>
		<polygon class="st1" points="66.2,71.7 70.1,69.3 70.1,66.3 66.2,68.7 		"/>
		<polygon class="st1" points="75.2,58.7 71.3,61.1 71.3,64.1 75.2,61.7 		"/>
		<polygon class="st1" points="71.3,68.5 75.2,66.1 75.2,63.1 71.3,65.5 		"/>
		<polygon class="st1" points="80.2,55.8 76.3,58.2 76.3,61.3 80.2,58.8 		"/>
		<polygon class="st1" points="76.3,65.7 80.2,63.2 80.2,60.2 76.3,62.6 		"/>
		<polygon class="st1" points="39.5,73.5 39.5,60.4 32.3,57 32.3,69.5 16.3,60.4 16.3,63.9 55.7,86.5 89.9,66.9 89.9,63.4 
			55.2,82.3 		"/>
	</g>
</g>
</svg>
