<?xml version="1.0" encoding="utf-8"?>
<!-- Generator: Adobe Illustrator 25.2.3, SVG Export Plug-In . SVG Version: 6.00 Build 0)  -->
<svg version="1.1" id="Capa_1" xmlns="http://www.w3.org/2000/svg" xmlns:xlink="http://www.w3.org/1999/xlink" x="0px" y="0px"
	 viewBox="0 0 408.7 111.4" style="enable-background:new 0 0 408.7 111.4;" xml:space="preserve">
<style type="text/css">
	.st0{fill:#878787;}
	.st1{fill:#224886;}
</style>
<g>
	<path class="st0" d="M136.7,66.4V51.8c0-3.9-1.2-7-3.4-9.2s-5.4-3.4-9.4-3.4c-2,0-4.1,0.3-6.1,1s-4.1,1.7-6.1,3.2l1.5,2.9
		c1.9-1.2,3.6-2.2,5.1-2.7c1.7-0.7,3.4-1,5.1-1c2.9,0,4.9,0.9,6.6,2.4c1.5,1.5,2.4,3.7,2.4,6.3V54c-1.4-0.5-2.7-0.9-4.4-1
		c-1.7-0.2-3.2-0.3-4.8-0.3c-2.7,0-4.9,0.3-7,1.2c-2,0.9-3.6,1.9-4.8,3.4c-1.2,1.4-1.7,3.2-1.7,5.1c0,1.7,0.5,3.4,1.4,4.9
		s2.2,2.7,3.9,3.6c1.7,0.9,3.6,1.4,5.6,1.4c2.4,0,4.8-0.5,7-1.5s4.1-2.4,5.6-4.3v2.4c0,0.7,0.3,1.4,0.9,1.9c0.5,0.7,1.4,1,2.4,1
		c0.2,0,0.3,0,0.7,0c0.3,0,0.7,0,1.2-0.2v-3.4c-0.5,0-0.9-0.2-1.2-0.5C136.9,67.3,136.7,66.9,136.7,66.4z M132.6,61.6
		c0,0.3-0.2,0.9-0.3,1.4c-0.2,0.5-0.5,1-1,1.7c-1,1.2-2.2,2.2-4.1,2.9c-1.7,0.9-3.6,1.2-5.6,1.2c-1.5,0-2.9-0.3-4.1-1
		s-2-1.5-2.7-2.6c-0.7-1-0.9-2.2-0.9-3.2c0-2,0.9-3.6,2.7-4.8c1.9-1.2,4.3-1.7,7.1-1.7c1.5,0,3.1,0.2,4.4,0.3
		c1.5,0.3,2.9,0.7,4.3,1.2v4.6C132.4,61.6,132.6,61.6,132.6,61.6z"/>
	<path class="st0" d="M155.2,67.9c-0.7,0.2-1.5,0.2-2.2,0.2c-0.9,0-1.5-0.2-2-0.7s-0.9-1.5-0.9-3.1V26.8h-4.3v38.9
		c0,1.9,0.5,3.4,1.7,4.6c1.2,1,2.6,1.7,4.4,1.7c0.9,0,1.7-0.2,2.9-0.3c1.2-0.2,2-0.5,2.9-0.9l-0.7-3.4
		C156.6,67.6,155.9,67.8,155.2,67.9z"/>
	<path class="st0" d="M187.2,45.8c-1.2-1.9-2.9-3.6-4.9-4.8s-4.4-1.9-6.8-1.9c-2,0-4.1,0.5-6,1.4s-3.4,2-4.8,3.6
		c-1.4,1.5-2.4,3.2-3.2,5.3c-0.9,2-1.2,4.1-1.2,6.3s0.3,4.3,1,6.1c0.7,2,1.7,3.7,2.9,5.3c1.2,1.5,2.7,2.7,4.6,3.6
		c1.7,0.9,3.7,1.4,6,1.4c4.9,0,9-2.4,12.1-7.1v19.6h4.1V39.5h-3.8L187.2,45.8L187.2,45.8z M186.7,60.8c-0.7,1.4-1.7,2.6-2.7,3.7
		c-1,1.2-2.2,2-3.6,2.7c-1.4,0.7-2.9,1-4.6,1c-2.2,0-4.3-0.5-6-1.7s-3.1-2.7-4.1-4.6c-1-1.9-1.5-4.1-1.5-6.3c0-1.5,0.3-3.1,0.9-4.6
		c0.5-1.5,1.4-2.9,2.4-4.1c1-1.2,2.2-2.2,3.7-2.9c1.4-0.7,3.1-1,4.8-1c1.2,0,2.4,0.2,3.4,0.7c1.2,0.3,2.2,1,3.2,1.9s1.9,1.7,2.6,2.7
		s1,2,1.2,3.1v9.4C186.4,60.8,186.7,60.8,186.7,60.8z"/>
	<path class="st0" d="M227,66.4V39.5h-4.1v20.1c-0.7,1.7-1.5,3.2-2.7,4.6s-2.6,2.4-4.1,3.1s-3.1,1-4.8,1c-2.4,0-4.3-0.9-5.6-2.7
		c-1.4-1.9-1.9-4.4-1.9-8.2V39.5h-4.1v18.7c0,4.4,0.9,8,2.6,10.2c1.7,2.4,4.3,3.4,7.7,3.4c2.7,0,5.3-0.7,7.7-2s4.3-3.2,5.6-5.8
		l0.2,4.3c0,0.9,0.3,1.5,1,2c0.5,0.5,1.4,0.9,2,1c0.2,0,0.5,0,0.9,0s0.7,0,1.2-0.2V68c-0.5,0-0.9-0.2-1-0.5
		C227,67.3,227,66.9,227,66.4z"/>
	<rect x="236.4" y="39.5" class="st0" width="4.1" height="31.8"/>
	<rect x="236.4" y="26.8" class="st0" width="4.1" height="6.1"/>
	<path class="st0" d="M259.2,67.9c-0.7,0.2-1.5,0.2-2.2,0.2c-0.9,0-1.5-0.2-2-0.7s-0.9-1.5-0.9-3.1V26.8H250v38.9
		c0,1.9,0.5,3.4,1.7,4.6c1.2,1,2.6,1.7,4.4,1.7c0.9,0,1.7-0.2,2.9-0.3c1.2-0.2,2-0.5,2.9-0.9l-0.7-3.4
		C260.5,67.6,259.8,67.8,259.2,67.9z"/>
	<path class="st0" d="M291,67.6c-0.2-0.3-0.3-0.7-0.3-1.2V51.8c0-3.9-1.2-7-3.4-9.2c-2.2-2.2-5.4-3.4-9.4-3.4c-2,0-4.1,0.3-6.1,1
		s-4.1,1.7-6.1,3.2l1.5,2.9c1.9-1.2,3.6-2.2,5.1-2.7c1.7-0.7,3.4-1,5.1-1c2.9,0,4.9,0.9,6.6,2.4c1.5,1.5,2.4,3.7,2.4,6.3V54
		c-1.4-0.5-2.7-0.9-4.4-1c-1.7-0.2-3.2-0.3-4.8-0.3c-2.7,0-4.9,0.3-7,1.2c-2,0.9-3.6,1.9-4.8,3.4c-1.2,1.4-1.7,3.2-1.7,5.1
		c0,1.7,0.5,3.4,1.4,4.9s2.2,2.7,3.9,3.6c1.7,0.9,3.6,1.4,5.6,1.4c2.4,0,4.8-0.5,7-1.5s4.1-2.4,5.6-4.3v2.4c0,0.7,0.3,1.4,0.9,1.9
		c0.5,0.7,1.4,1,2.4,1c0.2,0,0.3,0,0.7,0c0.3,0,0.7,0,1.2-0.2v-3.4C291.6,67.9,291.3,67.8,291,67.6z M286.5,61.6
		c0,0.3-0.2,0.9-0.3,1.4c-0.2,0.5-0.5,1-1,1.7c-1,1.2-2.2,2.2-4.1,2.9c-1.7,0.9-3.6,1.2-5.6,1.2c-1.5,0-2.9-0.3-4.1-1
		s-2-1.5-2.7-2.6c-0.7-1-0.9-2.2-0.9-3.2c0-2,0.9-3.6,2.7-4.8s4.3-1.7,7.1-1.7c1.5,0,3.1,0.2,4.4,0.3c1.5,0.3,2.9,0.7,4.3,1.2
		L286.5,61.6L286.5,61.6z"/>
</g>
<g>
	<path class="st1" d="M351,40.6c-1.9-1.2-4.3-1.7-7-1.7c-3.2,0-6.1,0.7-8.7,2.2c-1.4,0.9-2.7,1.9-3.7,3.1c-0.2-0.3-0.3-0.7-0.7-1
		c-1-1.5-2.4-2.6-4.1-3.2c-1.7-0.7-3.4-1-5.4-1c-2.6,0-4.9,0.5-7.1,1.7c-1.2,0.5-2.2,1.4-3.1,2.2l0.7-3.4h-9.2l-6.5,32.7h9.5
		l3.2-16.7c0.7-2.9,1.7-5.1,3.1-6.5c1.5-1.4,3.4-2,5.6-2c2,0,3.6,0.7,4.4,1.9c0.9,1.4,1,3.2,0.5,5.6l-3.3,17.6h9.5l3.4-16.8
		c0.5-2.9,1.5-4.9,3.1-6.3s3.4-2,5.6-2c2,0,3.6,0.7,4.4,1.9c0.9,1.4,1,3.2,0.5,5.6l-3.4,17.4h9.5l3.7-18.2c0.7-3.2,0.5-6.1-0.3-8.3
		C354.2,43.5,352.9,41.8,351,40.6z"/>
	<path class="st1" d="M394.2,45.7c-1.4-2.2-3.1-3.9-5.4-5.1c-2.4-1.2-5.1-1.9-8.3-1.9c-3.7,0-7.1,0.9-10,2.6s-5.3,3.9-6.8,6.8
		c-1.7,2.9-2.6,6.1-2.6,9.9c0,2.9,0.7,5.6,2,7.8c1.4,2.2,3.4,3.9,5.8,5.1c2.6,1.2,5.4,1.9,8.8,1.9c2.6,0,4.9-0.3,7.3-1
		s4.6-1.9,6.5-3.4l-3.9-6.3c-1,1-2.4,1.7-3.9,2.2c-1.5,0.5-3.2,0.9-4.8,0.9c-2.9,0-5.1-0.7-6.5-1.9c-1.2-1.2-1.9-2.7-2-4.9h25.2
		c0.2-0.9,0.3-1.5,0.5-2.4s0.2-1.7,0.2-2.6C396.1,50.5,395.6,47.9,394.2,45.7z M374.6,47.6c1.5-1,3.2-1.5,5.3-1.5
		c1.7,0,3.1,0.3,4.3,1c1.2,0.7,2,1.7,2.6,2.9c0.3,0.9,0.5,1.9,0.5,2.9H371c0.2-0.3,0.3-0.9,0.3-1.2C372.3,50,373.3,48.4,374.6,47.6z
		"/>
</g>
<g>
	<polygon class="st1" points="79.9,12.2 53.2,14.3 12.4,38.7 15.6,46.4 39.6,45 62,73.2 103.3,49.3 106.8,44.8 	"/>
	<polygon class="st1" points="79.1,70.4 74.5,73.2 74.5,76.7 79.1,73.9 	"/>
	<polygon class="st1" points="74.5,81.9 79.1,79.1 79.1,75.6 74.5,78.4 	"/>
	<polygon class="st1" points="85.1,66.6 80.5,69.5 80.5,73 85.1,70.2 	"/>
	<polygon class="st1" points="80.5,78.1 85.1,75.3 85.1,71.8 80.5,74.6 	"/>
	<polygon class="st1" points="91,63.2 86.4,66.1 86.4,69.7 91,66.8 	"/>
	<polygon class="st1" points="86.4,74.9 91,71.9 91,68.4 86.4,71.2 	"/>
	<polygon class="st1" points="43.2,84 43.2,68.6 34.7,64.6 34.7,79.3 15.9,68.6 15.9,72.7 62.2,99.3 102.4,76.3 102.4,72.2 
		61.6,94.4 	"/>
</g>
</svg>
