<?xml version="1.0" encoding="utf-8"?>
<!-- Generator: Adobe Illustrator 25.2.3, SVG Export Plug-In . SVG Version: 6.00 Build 0)  -->
<svg version="1.1" id="Capa_1" xmlns="http://www.w3.org/2000/svg" xmlns:xlink="http://www.w3.org/1999/xlink" x="0px" y="0px"
	 viewBox="0 0 425.2 425.2" style="enable-background:new 0 0 425.2 425.2;" xml:space="preserve">
<style type="text/css">
	.st0{fill:#111114;}
	.st1{fill:#FFFFFF;}
</style>
<g>
	<path class="st0" d="M411.3,212.6c0,109.7-89,198.7-198.7,198.7h0c-109.7,0-198.7-89-198.7-198.7v0c0-109.7,89-198.7,198.7-198.7h0
		C322.3,13.9,411.3,102.9,411.3,212.6L411.3,212.6z"/>
	<path class="st1" d="M211.9,85.3c-61.4,2-112.1,51.7-115.2,113.1c-1.1,22.1,3.8,43,13.3,61.2l-13.3,59.7c-0.6,2.7,1.8,5.1,4.5,4.5
		l59.7-13.3h0c18,9.4,38.7,14.3,60.7,13.3c61.3-2.8,111.2-53.2,113.5-114.5C337.8,139.9,281.2,83,211.9,85.3z M215.9,299.2
		c-17.4,0-33.6-4.7-47.6-12.9c-1.3-0.7-2.6-1.5-3.8-2.3l-38.1,10.2l10.2-38.1c-9.6-14.8-15.2-32.5-15.2-51.4
		c0-52.2,42.5-94.6,94.6-94.6s94.6,42.5,94.6,94.6S268,299.2,215.9,299.2z"/>
	<path class="st1" d="M272,246.2c-1.7,2.5-3.4,4.8-6.1,7.5c-6.1,6.1-14.5,9.1-23,8.3c-15.3-1.6-37-10-55.7-28.7
		c-18.7-18.7-27.1-40.4-28.7-55.7c-0.9-8.5,2.2-17,8.3-23c2.8-2.8,5.1-4.5,7.5-6.2c4.6-3.1,10.8-1,12.5,4.2l6.3,18.8
		c1.7,5.2,0.9,8.4-1.3,10.6l-5,5c-2.5,2.5-2.9,6.3-1,9.3c2.8,4.3,8,11.3,17.5,20.8c9.6,9.6,16.5,14.8,20.8,17.5c3,1.9,6.8,1.5,9.3-1
		l5-5c2.2-2.2,5.4-3,10.6-1.3l18.8,6.3C273,235.4,275.1,241.6,272,246.2z"/>
</g>
</svg>
