<?xml version="1.0" encoding="utf-8"?>
<!-- Generator: Adobe Illustrator 25.2.3, SVG Export Plug-In . SVG Version: 6.00 Build 0)  -->
<svg version="1.1" id="Capa_1" xmlns="http://www.w3.org/2000/svg" xmlns:xlink="http://www.w3.org/1999/xlink" x="0px" y="0px"
	 viewBox="0 0 425.2 425.2" style="enable-background:new 0 0 425.2 425.2;" xml:space="preserve">
<style type="text/css">
	.st0{fill:#111114;}
	.st1{fill:#FFFFFF;}
</style>
<g>
	<path class="st0" d="M411.3,212.6c0,109.7-89,198.7-198.7,198.7h0c-109.7,0-198.7-89-198.7-198.7v0c0-109.7,89-198.7,198.7-198.7h0
		C322.3,13.9,411.3,102.9,411.3,212.6L411.3,212.6z"/>
	<path class="st1" d="M271.5,197.2l-3.3,26.6c-0.6,4.4-4.3,7.8-8.8,7.8h-43v111.1c-4.5,0.4-9.1,0.6-13.8,0.6c-10.4,0-20.6-1-30.4-3
		V231.5h-33.1c-3,0-5.5-2.5-5.5-5.5v-33.3c0-3,2.5-5.5,5.5-5.5h33.1v-49.9c0-30.6,24.7-55.4,55.2-55.4H266c3,0,5.5,2.5,5.5,5.5v33.3
		c0,3-2.5,5.5-5.5,5.5h-27.6c-12.2,0-22.1,9.9-22.1,22.2v38.8h46.4C268,187.2,272.1,191.9,271.5,197.2z"/>
</g>
</svg>
