<?xml version="1.0" encoding="utf-8"?>
<!-- Generator: Adobe Illustrator 25.2.3, SVG Export Plug-In . SVG Version: 6.00 Build 0)  -->
<svg version="1.1" id="Capa_1" xmlns="http://www.w3.org/2000/svg" xmlns:xlink="http://www.w3.org/1999/xlink" x="0px" y="0px"
	 viewBox="0 0 425.2 425.2" style="enable-background:new 0 0 425.2 425.2;" xml:space="preserve">
<style type="text/css">
	.st0{fill:#111114;}
	.st1{fill:#FFFFFF;}
</style>
<g>
	<path class="st0" d="M411.3,212.6c0,109.7-89,198.7-198.7,198.7h0c-109.7,0-198.7-89-198.7-198.7v0c0-109.7,89-198.7,198.7-198.7h0
		C322.3,13.9,411.3,102.9,411.3,212.6L411.3,212.6z"/>
	<path class="st1" d="M241.3,194.3l80.4-86h-30.5L228,175.9l-48.3-67.5H96.3l84.5,118l-84.5,90.4h30.5l67.2-71.9l51.5,71.9h83.5
		L241.3,194.3z M139.3,130.5h29.1l117.6,164.2h-29.1L139.3,130.5z"/>
</g>
</svg>
